<svg xmlns="http://www.w3.org/2000/svg" width="81" height="24" fill="none"><path fill="#B7B7B7" d="M70.042 0H9.782c-.41 0-.762.059-1.174.117-.41.06-.763.177-1.116.353-.352.176-.646.411-.94.705a3.572 3.572 0 0 0-.704.94c-.17.352-.29.728-.353 1.115-.058.412-.117.822-.117 1.175v14.624c0 .412.059.764.117 1.175.06.41.177.763.353 1.116.176.411.411.704.705.998.293.294.587.529.94.705.35.178.726.298 1.115.352.412.059.764.117 1.175.117h61.434c.411 0 .763-.058 1.175-.117a3.542 3.542 0 0 0 1.116-.352c.352-.176.646-.41.94-.705.293-.294.528-.587.704-.94a3.54 3.54 0 0 0 .352-1.116c.06-.41.118-.763.118-1.174V4.405c0-.411-.059-.763-.118-1.175a3.537 3.537 0 0 0-.352-1.116 3.57 3.57 0 0 0-.705-.94 3.57 3.57 0 0 0-.94-.704 3.544 3.544 0 0 0-1.115-.353C71.98.06 71.628 0 71.217 0h-1.175Z"/><path fill="#000001" d="M10.312 22.965h-.53c-.351 0-.704 0-1.115-.117a4.957 4.957 0 0 1-.998-.294c-.294-.176-.588-.353-.823-.588-.234-.234-.47-.529-.587-.822-.176-.294-.235-.588-.294-.998-.058-.411-.117-.823-.117-1.116V4.405c0-.293 0-.705.117-1.116.118-.294.176-.646.353-.94.176-.293.352-.587.587-.822.235-.234.529-.41.822-.587.294-.176.646-.235.999-.294C9.078.53 9.489.53 9.783.53h61.434c.294 0 .705 0 1.116.117.352.059.646.177.998.294.294.176.587.353.823.587.235.235.47.529.587.823.176.293.235.645.294.94.058.352.117.763.117 1.115V19.03c0 .353-.059.705-.117 1.116a4.972 4.972 0 0 1-.294.999c-.176.293-.352.587-.587.822-.236.235-.529.47-.823.587-.294.176-.587.235-.998.294-.353.058-.764.058-1.116.117H10.312Z"/><path fill="#fff" d="M19.944 11.922c0-1.645 1.35-2.408 1.41-2.467-.764-1.116-1.939-1.233-2.35-1.292-.998-.117-1.938.588-2.466.588-.53 0-1.293-.588-2.115-.588-1.057 0-2.056.646-2.643 1.586-1.116 1.938-.294 4.875.822 6.46.529.764 1.175 1.645 1.997 1.645.822-.058 1.116-.528 2.115-.528.998 0 1.233.528 2.114.528.881 0 1.41-.764 1.938-1.586.646-.88.881-1.762.881-1.82 0 .058-1.703-.588-1.703-2.526Zm-1.645-4.757c.411-.529.764-1.293.646-2.056-.646 0-1.41.411-1.879.999-.412.47-.764 1.233-.646 1.996.705 0 1.468-.41 1.88-.94Zm11.923 8.75h-2.76l-.647 1.997H25.64l2.643-7.283h1.175l2.643 7.283h-1.174l-.705-1.997Zm-2.467-.881h2.232l-1.116-3.23h-.058l-1.058 3.23Zm10.043.235c0 1.645-.88 2.702-2.232 2.702-.763 0-1.35-.353-1.644-.94v2.643h-1.116v-7.048h1.057v.881c.294-.587.94-.94 1.703-.94 1.292-.058 2.232 1.057 2.232 2.702Zm-1.174 0c0-1.057-.529-1.762-1.41-1.762-.822 0-1.41.704-1.41 1.762 0 1.057.588 1.762 1.41 1.762.881 0 1.41-.705 1.41-1.762Zm6.989 0c0 1.645-.881 2.702-2.232 2.702-.763 0-1.351-.353-1.645-.94v2.643h-1.115v-7.048h1.057v.881c.294-.587.94-.94 1.704-.94 1.35-.058 2.231 1.057 2.231 2.702Zm-1.116 0c0-1.057-.529-1.762-1.41-1.762-.822 0-1.41.704-1.41 1.762 0 1.057.588 1.762 1.41 1.762.881 0 1.41-.705 1.41-1.762Zm4.992.587c.059.705.764 1.175 1.762 1.175.94 0 1.586-.47 1.586-1.116 0-.587-.412-.881-1.351-1.116l-.94-.234c-1.35-.353-1.938-.94-1.938-1.939 0-1.234 1.116-2.115 2.643-2.115 1.527 0 2.585.881 2.643 2.115h-1.116c-.059-.704-.646-1.175-1.527-1.175-.88 0-1.468.47-1.468 1.116 0 .529.411.823 1.35 1.057l.823.177c1.468.352 2.114.94 2.114 1.997 0 1.35-1.116 2.231-2.819 2.231-1.645 0-2.701-.822-2.76-2.173h.998Zm6.813-4.521v1.233h.998v.88h-.997v2.938c0 .47.175.645.646.645h.352v.881c-.117.059-.352.059-.587.059-1.057 0-1.468-.411-1.468-1.41v-3.054h-.764v-.88h.764v-1.234h1.057v-.059Zm1.645 3.934c0-1.645.998-2.702 2.525-2.702s2.526 1.057 2.526 2.702c0 1.704-.999 2.702-2.526 2.702-1.586 0-2.525-1.057-2.525-2.702Zm3.934 0c0-1.175-.528-1.82-1.41-1.82-.88 0-1.409.646-1.409 1.82 0 1.175.529 1.82 1.41 1.82.88 0 1.41-.704 1.41-1.82Zm1.998-2.701h1.057v.94c.175-.588.646-.94 1.292-.94.176 0 .294 0 .352.058v.998c-.058-.058-.294-.058-.47-.058-.705 0-1.116.47-1.116 1.233v3.172H61.88v-5.403Zm7.752 3.758c-.117.94-1.115 1.645-2.29 1.645-1.527 0-2.525-1.057-2.525-2.702s.939-2.76 2.466-2.76c1.468 0 2.408.998 2.408 2.643v.352H65.93v.059c0 .881.587 1.527 1.41 1.527.587 0 1.057-.293 1.233-.764h1.057Zm-3.7-1.585h2.643c0-.823-.528-1.351-1.292-1.351s-1.292.587-1.35 1.35ZM27.58 5.11c1.057 0 1.645.646 1.645 1.762s-.588 1.762-1.645 1.762h-1.292V5.11h1.292Zm-.705 3.054h.646c.705 0 1.175-.47 1.175-1.234 0-.763-.412-1.233-1.175-1.233h-.646v2.467Zm2.996-.882c0-.88.47-1.35 1.232-1.35.764 0 1.234.528 1.234 1.35 0 .881-.47 1.351-1.233 1.351-.764.059-1.233-.47-1.233-1.35Zm1.937 0c0-.587-.234-.88-.704-.88s-.705.352-.705.88c0 .587.235.94.704.94.47 0 .705-.353.705-.94Zm3.877 1.351h-.528l-.529-1.937h-.059l-.529 1.937h-.528l-.705-2.642h.529l.47 1.997h.058l.529-1.997h.528l.529 1.997h.058l.47-1.997h.529l-.822 2.643Zm1.35-2.643h.53v.411h.058c.117-.294.411-.47.764-.47.587 0 .94.353.94.999v1.703h-.53V7.048c0-.411-.175-.646-.587-.646-.411 0-.646.235-.646.646v1.527h-.528V5.991Zm3.055-1.056h.529v3.7h-.529v-3.7Zm1.233 2.348c0-.88.47-1.35 1.234-1.35.763 0 1.233.528 1.233 1.35 0 .881-.47 1.351-1.233 1.351-.764.059-1.234-.47-1.234-1.35Zm1.997 0c0-.587-.235-.88-.705-.88s-.704.352-.704.88c0 .587.234.94.704.94.411 0 .705-.353.705-.94Zm1.057.587c0-.47.353-.763.999-.763l.705-.059v-.235c0-.293-.176-.41-.529-.41-.294 0-.47.116-.529.293h-.528c.059-.47.47-.764 1.057-.764.646 0 1.057.353 1.057.881v1.82h-.528v-.351h-.059c-.177.293-.47.41-.822.41a.803.803 0 0 1-.823-.822Zm1.704-.234V7.4l-.646.058c-.353 0-.53.177-.53.353 0 .234.236.352.47.352.412.059.706-.176.706-.528Zm1.174-.352c0-.823.412-1.351 1.116-1.351.353 0 .646.175.822.47h.059V4.934h.529v3.7h-.529v-.41h-.058a.937.937 0 0 1-.823.47c-.646 0-1.116-.53-1.116-1.41Zm.588 0c0 .587.293.88.704.88s.705-.352.705-.88c0-.529-.294-.881-.705-.881-.47 0-.704.352-.704.88Zm4.052 0c0-.882.47-1.352 1.233-1.352.764 0 1.234.529 1.234 1.351 0 .881-.47 1.351-1.233 1.351-.764.059-1.234-.47-1.234-1.35Zm1.997 0c0-.588-.235-.882-.705-.882s-.705.353-.705.881c0 .587.235.94.705.94.412 0 .705-.353.705-.94Zm1.233-1.293h.529v.411h.058c.118-.294.412-.47.764-.47.587 0 .94.353.94.999v1.703h-.529V7.048c0-.411-.175-.646-.587-.646-.411 0-.646.235-.646.646v1.527h-.529V5.991Zm5.169-.647v.647h.587v.47h-.587v1.35c0 .295.117.412.352.412h.176v.411h-.293c-.587 0-.823-.176-.823-.705V6.461h-.41V6.05h.41v-.706h.588Zm1.292-.41h.529v1.469h.058c.118-.294.412-.47.822-.47.588 0 .94.352.94.998v1.704h-.529V7.048c0-.41-.175-.645-.587-.645-.41 0-.646.293-.646.645v1.528h-.529V4.935h-.058Zm5.344 2.995c-.117.47-.528.764-1.174.764-.764 0-1.233-.529-1.233-1.351s.47-1.41 1.233-1.41c.763 0 1.174.529 1.174 1.351v.176H65.05c0 .47.294.764.705.764.293 0 .529-.117.646-.294h.528Zm-1.879-.88h1.35c0-.412-.293-.705-.645-.705-.411.058-.646.293-.705.704Z"/></svg>