<svg xmlns="http://www.w3.org/2000/svg" width="110" height="50" fill="none"><path fill="#000" d="M52.746 18.16c-.907 0-1.404.088-2.136.441-1.345.616-2.338 1.614-3.216 3.23l-.293.5.029-.911c.03-.5.058-1.41.088-2.056l.029-1.146h-.205c-.234 0-7.955 1.556-8.189 1.645-.146.058-.175.117-.175.5 0 .381.03.44.175.47.088.029.44.087.79.146.673.117.878.235 1.17.616.526.676.614 1.91.614 7.05 0 4.2-.088 6.313-.292 6.96-.235.793-.673 1.204-1.433 1.35-.234.059-.556.118-.702.148l-.264.058-.029.53c-.029.381 0 .558.088.616.058.029 2.691.058 5.849.058l5.762-.03.03-.615c0-.324 0-.617-.03-.617-.44 0-1.814-.176-2.048-.294-.643-.264-.964-.852-1.111-2.056-.146-1.38-.263-4.875-.205-7.695.059-2.878.059-2.878.235-3.084.409-.44 1.462-.793 2.427-.793.76 0 1.55.206 2.369.587.409.206.76.324.819.324.116-.03 1.989-5.051 1.989-5.286 0-.294-1.083-.647-2.135-.647Z"/><path fill="#000" d="M38.705 26.884c-.409-3.465-1.871-5.99-4.3-7.43-2.69-1.586-6.755-1.675-9.65-.206-2.105 1.058-3.802 3.084-4.563 5.434-.79 2.408-.79 5.58 0 8.017.498 1.586 1.17 2.733 2.224 3.76 1.257 1.262 2.894 2.055 4.796 2.32.671.087 2.808.087 3.508 0 .323-.058.908-.177 1.259-.265 3.421-.998 5.761-3.642 6.551-7.401.204-.94.292-3.172.175-4.23Zm-8.656 10.398c-2.136.645-3.656-1.41-4.242-5.669-.204-1.38-.175-5.14 0-6.697.41-3.436 1.463-5.168 3.13-5.168.76 0 1.17.175 1.754.763 1.405 1.41 2.049 4.111 2.049 8.341 0 3.377-.351 5.492-1.083 6.93-.38.676-1.053 1.323-1.608 1.5Z"/><path fill="#000" d="M10.63 13.08h2.457c2.806 0 3.274.057 4.269.557 1.433.705 2.486 2.115 3.421 4.582.381.999.381.999 1.2.735l.556-.177-.058-3.613c-.03-1.996-.06-3.76-.088-3.906l-.06-.323-10.733-.029c-5.908 0-10.85 0-10.997.03l-.262.057.029.647.03.646.818.089c1.054.116 1.697.44 2.076.968.85 1.234.995 2.937.995 10.955 0 8.546-.176 10.632-.995 11.69-.41.558-.76.734-1.725.91-1.257.235-1.2.206-1.2.852 0 .352.03.558.089.587.145.059 13.862.059 14.009 0 .175-.058.175-1.087 0-1.174-.339-.08-.68-.15-1.024-.206-.497-.088-1.024-.206-1.2-.265-.906-.381-1.403-1.468-1.579-3.436-.145-1.41-.233-4.023-.233-5.933v-1.761l.847.029c1.784.058 2.691.146 3.072.323.819.352 1.461 1.351 1.783 2.76l.176.734.644.03.643.03v-9.4l-.644.031-.643.03-.176.733c-.35 1.44-.935 2.32-1.813 2.732-.35.175-.614.205-1.432.264-.556.03-1.346.058-1.726.058h-.731v-2.32c0-2.32.116-7.283.204-8.046v-.47Zm97.42 16.56c-.644-1.32-1.872-2.201-4.388-3.258-2.046-.853-3.099-1.469-3.714-2.145-.525-.558-.671-1.027-.613-1.85.058-.764.234-1.233.73-1.762.614-.675 1.492-.91 2.515-.675 1.668.351 2.75 1.527 3.686 3.993.322.882.38.912.964.676l.381-.147v-1.028c0-.558-.03-1.732-.058-2.614l-.059-1.586-.293-.116c-1.55-.646-4.474-1.058-6.375-.882-2.165.205-3.772.881-5.002 2.174-1.227 1.263-1.783 2.76-1.666 4.523.088 1.468.498 2.496 1.404 3.435.819.852 1.52 1.263 3.539 2.056 3.216 1.264 4.094 2.027 4.064 3.584 0 1.322-.702 2.29-1.959 2.731-.468.147-1.609.147-2.223 0-1.608-.412-2.837-1.82-3.89-4.406l-.263-.674-.321.028c-.175 0-.41.059-.526.118l-.205.117.029 1.146c0 .616.029 1.938.058 2.907l.059 1.79.35.148c.732.324 2.954.794 4.329.94.176.03 1.111.03 2.106 0 1.696-.03 1.842-.03 2.691-.264 2.544-.674 4.182-2.085 4.913-4.229.234-.674.263-.851.292-1.85-.029-1.351-.145-2.027-.555-2.88ZM88.424 18.955c-2.135-1.086-5.44-.998-7.84.176-2.28 1.117-3.858 2.996-4.735 5.64-.469 1.38-.615 2.466-.556 4.258.03 1.116.087 1.704.204 2.233.907 4.052 3.656 6.783 7.516 7.488.849.148 2.779.148 3.626 0 1.229-.205 2.632-.763 3.539-1.38 1.083-.734 2.194-1.85 2.194-2.203 0-.205-.38-.704-.527-.704-.058 0-.38.146-.671.352-1.054.705-2.078.969-3.51.969-1.96 0-3.189-.5-4.446-1.762-.556-.558-.79-.852-1.054-1.41-.614-1.204-.964-2.613-1.022-4.2l-.03-.675 5.761-.03 5.762-.029.029-.381c0-.206 0-.764-.058-1.263-.35-3.437-1.783-5.846-4.182-7.078v-.001Zm-5.79 7.137-1.463.03v-.323c0-.177.058-.647.117-1.028.498-3.143 1.667-5.023 3.13-5.023 1.344 0 2.164 1.85 2.338 5.258l.058.969-1.344.058c-.76 0-2.047.03-2.837.059ZM67.57 18.6c-.468-.088-.878-.117-1.754-.088-1.346.058-2.252.235-3.277.705-.32.146-.614.293-.643.293-.029 0-.029-2.026 0-4.524.03-3.523.03-4.522-.057-4.522-.264 0-8.19 1.527-8.277 1.586-.058.059-.088.235-.088.47.029.44-.029.412.936.616.292.06.643.206.76.295.322.234.585.733.79 1.44.146.557.175.968.234 4.786.058 3.906.058 7.93-.058 15.272l-.06 3.055.557.116c.818.177 3.187.589 3.948.677 1.14.116 3.772.087 4.62-.03 3.656-.558 6.406-2.672 7.692-5.933.35-.85.673-2.202.79-3.172.145-1.145.057-3.465-.146-4.404-.761-3.554-2.984-6.021-5.967-6.639Zm-5.557 18.414c-.088-.264-.205-9.428-.174-13.07l.029-2.848.526-.147c.402-.099.814-.148 1.228-.146.672 0 .731.029 1.287.293 1.346.675 2.252 2.32 2.69 4.817.147.94.176 3.465.03 4.582-.35 2.731-1.228 4.933-2.428 5.99-.468.412-.907.647-1.462.764-.41.089-.526.089-1.287.03-.292-.059-.35-.088-.439-.265Z"/></svg>