<svg xmlns="http://www.w3.org/2000/svg" width="81" height="24" fill="none"><g clip-path="url(#a)"><path fill="#000" d="M77.537 23.951H3.463A2.934 2.934 0 0 1 .5 20.988V3.211A2.934 2.934 0 0 1 3.463.247h74.074A2.934 2.934 0 0 1 80.5 3.21v17.777c0 1.6-1.304 2.963-2.963 2.963Z"/><path fill="#A6A6A6" d="M77.537.722a2.504 2.504 0 0 1 2.489 2.489v17.777a2.503 2.503 0 0 1-2.489 2.489H3.463a2.503 2.503 0 0 1-2.489-2.489V3.211A2.504 2.504 0 0 1 3.463.72h74.074Zm0-.474H3.463A2.934 2.934 0 0 0 .5 3.21v17.778a2.934 2.934 0 0 0 2.963 2.963h74.074a2.935 2.935 0 0 0 2.963-2.963V3.211c0-1.6-1.304-2.963-2.963-2.963Z"/><path fill="#fff" stroke="#fff" stroke-miterlimit="10" stroke-width=".133" d="M28.589 6.292c0 .473-.119.889-.415 1.185-.355.356-.77.533-1.304.533a1.74 1.74 0 0 1-1.303-.533 1.742 1.742 0 0 1-.534-1.304c0-.533.178-.948.534-1.304.355-.355.77-.533 1.304-.533.236 0 .473.06.71.178.238.119.415.237.534.415l-.296.296c-.238-.296-.534-.414-.948-.414-.356 0-.712.118-.949.414-.296.237-.415.593-.415 1.007 0 .415.119.77.415 1.008.297.237.593.415.948.415.415 0 .711-.12 1.008-.415a.983.983 0 0 0 .296-.711H26.87v-.415h1.719v.178Zm2.726-1.482h-1.6v1.126h1.481v.415h-1.481v1.126h1.6v.474H29.24V4.395h2.074v.415Zm1.956 3.14h-.475V4.81h-1.007v-.415h2.489v.415h-1.007v3.14Zm2.725 0V4.396h.475v3.556h-.475Zm2.49 0h-.475V4.81h-1.007v-.415h2.43v.415h-1.008v3.14h.06Zm5.629-.473c-.356.356-.77.534-1.304.534-.533 0-.948-.178-1.304-.534a1.745 1.745 0 0 1-.533-1.304c0-.533.178-.948.533-1.304.356-.355.771-.533 1.304-.533.534 0 .948.178 1.304.533.356.356.533.77.533 1.304s-.177.948-.533 1.304Zm-2.252-.296c.237.237.592.414.948.414s.711-.118.948-.414c.238-.238.415-.593.415-1.008 0-.414-.119-.77-.415-1.007-.237-.237-.592-.415-.948-.415s-.711.118-.948.415a1.43 1.43 0 0 0-.415 1.007c0 .415.119.77.415 1.008Zm3.437.77V4.395h.533l1.719 2.786V4.395h.473v3.556h-.473l-1.837-2.904v2.904H45.3Z"/><path fill="#fff" d="M40.855 13.165c-1.422 0-2.548 1.067-2.548 2.548a2.532 2.532 0 0 0 2.548 2.548c1.423 0 2.549-1.066 2.549-2.548 0-1.54-1.127-2.548-2.549-2.548Zm0 4.03c-.77 0-1.422-.652-1.422-1.541 0-.889.652-1.54 1.422-1.54.771 0 1.423.592 1.423 1.54 0 .889-.652 1.54-1.423 1.54Zm-5.51-4.03c-1.423 0-2.549 1.067-2.549 2.548a2.53 2.53 0 0 0 2.549 2.548c1.422 0 2.548-1.066 2.548-2.548 0-1.54-1.126-2.548-2.548-2.548Zm0 4.03c-.771 0-1.423-.652-1.423-1.541 0-.889.652-1.54 1.423-1.54.77 0 1.422.592 1.422 1.54 0 .889-.652 1.54-1.422 1.54Zm-6.578-3.26v1.067h2.548c-.06.593-.296 1.067-.593 1.363-.355.356-.948.77-1.955.77-1.6 0-2.786-1.244-2.786-2.844 0-1.6 1.245-2.845 2.786-2.845.829 0 1.481.356 1.955.77l.77-.77c-.651-.593-1.48-1.066-2.666-1.066-2.133 0-3.97 1.777-3.97 3.91 0 2.134 1.837 3.912 3.97 3.912 1.185 0 2.015-.356 2.726-1.126.71-.71.948-1.719.948-2.489 0-.237 0-.474-.06-.652h-3.673Zm26.903.83c-.237-.593-.83-1.6-2.133-1.6-1.304 0-2.37 1.007-2.37 2.548 0 1.422 1.066 2.548 2.488 2.548 1.127 0 1.838-.711 2.074-1.126l-.829-.593c-.296.415-.652.712-1.245.712-.592 0-.948-.237-1.244-.77l3.378-1.423-.119-.296Zm-3.437.83c0-.949.771-1.482 1.304-1.482.415 0 .83.237.948.534l-2.252.948Zm-2.785 2.43h1.127v-7.408h-1.127v7.407Zm-1.777-4.327c-.297-.296-.771-.592-1.364-.592-1.244 0-2.429 1.126-2.429 2.548 0 1.422 1.126 2.489 2.43 2.489.592 0 1.066-.296 1.303-.593h.059v.356c0 .948-.533 1.481-1.363 1.481-.652 0-1.126-.474-1.244-.889l-.948.415c.296.652 1.007 1.482 2.252 1.482 1.304 0 2.37-.77 2.37-2.608v-4.504h-1.066v.415Zm-1.304 3.497c-.771 0-1.422-.652-1.422-1.54 0-.89.651-1.541 1.422-1.541.77 0 1.362.652 1.362 1.54 0 .89-.592 1.541-1.362 1.541Zm14.459-6.578h-2.667v7.408h1.126V15.24h1.54c1.246 0 2.43-.89 2.43-2.312 0-1.421-1.184-2.31-2.429-2.31Zm.06 3.556h-1.6v-2.549h1.6c.829 0 1.303.712 1.303 1.245-.06.652-.534 1.304-1.304 1.304Zm6.814-1.066c-.83 0-1.66.355-1.955 1.126l1.006.414c.238-.414.594-.533 1.008-.533.593 0 1.126.355 1.186.948v.06c-.178-.12-.652-.297-1.126-.297-1.067 0-2.134.593-2.134 1.66 0 1.006.889 1.658 1.837 1.658.77 0 1.126-.355 1.423-.71h.059v.592h1.067V15.18c-.119-1.304-1.126-2.073-2.371-2.073Zm-.119 4.088c-.355 0-.888-.178-.888-.652 0-.592.652-.77 1.185-.77.474 0 .71.119 1.007.237-.118.711-.711 1.185-1.304 1.185Zm6.223-3.911-1.245 3.2H72.5l-1.304-3.2h-1.185l1.956 4.504-1.126 2.489h1.126l3.022-6.993h-1.185Zm-9.956 4.74h1.127v-7.406h-1.127v7.407Z"/><path fill="url(#b)" d="M6.663 4.692c-.178.178-.296.474-.296.83v13.096c0 .355.118.652.296.83l.06.06 7.347-7.35v-.118L6.663 4.692Z"/><path fill="url(#c)" d="m16.5 14.648-2.43-2.43v-.177l2.43-2.43.06.06 2.903 1.659c.83.473.83 1.243 0 1.718l-2.963 1.6Z"/><path fill="url(#d)" d="M16.56 14.587 14.07 12.1l-7.407 7.407c.296.296.711.296 1.244.06l8.653-4.98v.001Z"/><path fill="url(#e)" d="M16.56 9.611 7.906 4.693c-.534-.297-.948-.238-1.245.059l7.409 7.348 2.488-2.489Z"/><path fill="#000" d="m16.5 14.53-8.593 4.86c-.474.296-.888.236-1.185 0l-.06.058.06.06c.297.237.711.296 1.185 0l8.593-4.98v.002Z" opacity=".2"/><path fill="#000" d="M6.663 19.389c-.178-.178-.237-.474-.237-.83v.06c0 .355.119.65.296.829v-.06h-.06Zm12.8-6.52-2.963 1.66.06.059 2.903-1.66c.415-.236.593-.533.593-.829 0 .296-.237.534-.593.77Z" opacity=".12"/><path fill="#fff" d="m7.907 4.751 11.556 6.578c.356.237.592.474.592.77 0-.296-.177-.592-.592-.829L7.907 4.692c-.829-.474-1.48-.059-1.48.889v.06c0-.949.652-1.364 1.481-.89Z" opacity=".25"/></g><defs><linearGradient id="b" x1="13.419" x2="3.473" y1="5.409" y2="15.354" gradientUnits="userSpaceOnUse"><stop stop-color="#00A0FF"/><stop offset=".007" stop-color="#00A1FF"/><stop offset=".26" stop-color="#00BEFF"/><stop offset=".512" stop-color="#00D2FF"/><stop offset=".76" stop-color="#00DFFF"/><stop offset="1" stop-color="#00E3FF"/></linearGradient><linearGradient id="c" x1="20.55" x2="6.211" y1="12.101" y2="12.101" gradientUnits="userSpaceOnUse"><stop stop-color="#FFE000"/><stop offset=".409" stop-color="#FFBD00"/><stop offset=".775" stop-color="orange"/><stop offset="1" stop-color="#FF9C00"/></linearGradient><linearGradient id="d" x1="15.212" x2="1.726" y1="13.459" y2="26.946" gradientUnits="userSpaceOnUse"><stop stop-color="#FF3A44"/><stop offset="1" stop-color="#C31162"/></linearGradient><linearGradient id="e" x1="4.824" x2="10.847" y1=".353" y2="6.375" gradientUnits="userSpaceOnUse"><stop stop-color="#32A071"/><stop offset=".069" stop-color="#2DA771"/><stop offset=".476" stop-color="#15CF74"/><stop offset=".801" stop-color="#06E775"/><stop offset="1" stop-color="#00F076"/></linearGradient><clipPath id="a"><path fill="#fff" d="M0 0h81v24H0z"/></clipPath></defs></svg>