<svg xmlns="http://www.w3.org/2000/svg" width="16" height="16" fill="none"><g clip-path="url(#a)"><path fill="#000" d="M8 1.75c2.038 0 2.28.007 3.086.044 2.068.094 3.034 1.076 3.129 3.13.037.804.044 1.046.044 3.085 0 2.038-.008 2.28-.044 3.085-.095 2.051-1.06 3.035-3.13 3.129-.805.037-1.045.045-3.085.045-2.038 0-2.28-.008-3.085-.045-2.074-.095-3.035-1.08-3.13-3.13-.036-.805-.044-1.046-.044-3.085 0-2.038.008-2.28.045-3.085.094-2.053 1.059-3.035 3.129-3.13C5.72 1.758 5.962 1.75 8 1.75ZM8 .374c-2.073 0-2.333.009-3.147.045C2.08.546.54 2.085.411 4.861.376 5.676.366 5.935.366 8.008c0 2.074.009 2.334.045 3.148.128 2.773 1.666 4.313 4.44 4.44.816.038 1.075.046 3.149.046 2.073 0 2.334-.009 3.148-.046 2.77-.127 4.314-1.665 4.44-4.44.038-.815.046-1.074.046-3.148 0-2.073-.009-2.333-.045-3.147-.125-2.77-1.665-4.315-4.44-4.442C10.332.381 10.073.374 8 .374Zm0 3.714a3.92 3.92 0 1 0 0 7.84 3.92 3.92 0 0 0 0-7.84Zm0 6.465a2.546 2.546 0 0 1-2.39-3.529A2.545 2.545 0 0 1 8 5.464a2.545 2.545 0 1 1 0 5.089Zm4.075-7.536a.917.917 0 1 0-.052 1.833.917.917 0 0 0 .052-1.833Z"/></g><defs><clipPath id="a"><path fill="#fff" d="M0 0h16v16H0z"/></clipPath></defs></svg>