<svg xmlns="http://www.w3.org/2000/svg" width="217" height="50" fill="none"><path fill="#000" d="M6.598 26.231v-8.173l-2.476 1.167s-.583 1.46-.583 3.504c.147 1.605 1.02 3.502 1.602 4.232l1.457-.73Zm7.137-16.784c.582 0 1.601.292 2.33 1.023.727.729.874 1.897.727 2.918-.29.876-.436 1.314-1.456 2.043-.874.584-2.039.584-2.039.584v3.94l1.894 1.605-1.894 1.606v5.108s1.894-1.167 3.06-3.502c0 0 0-.147.144-.438.146.73 0 2.043-.727 3.648a6.898 6.898 0 0 1-2.913 3.21c-2.331 1.314-3.934 1.314-5.825 1.023-2.185-.439-4.08-1.606-5.39-3.796-.873-1.459-1.31-3.063-1.31-4.961.146-3.649 2.767-6.713 5.825-7.88.437-.147.582-.292 1.02-.292-.292.145-.583.437-.874.584-1.02.583-1.894 1.896-2.185 2.918l5.971-2.628v8.465l-4.806 2.482c.582.729 2.185 1.896 3.641 2.043 2.477.29 3.933-.73 3.933-.73v-5.546l-1.894-1.604 1.894-1.606v-3.941c-1.02-.145-2.331-.437-3.059-.584-1.02-.29-4.66-1.314-5.243-1.314-.582-.145-1.311 0-1.747.293-.438.438-.729 1.021-.438 1.605.146.292.292.584.583.73 0 0-.145 0-.583-.292-.582-.292-1.165-1.022-1.165-2.043-.145-1.314.438-2.481 1.457-3.211.873-.584 2.038-1.021 3.203-.876 1.748.292 4.224 1.314 6.263 1.751.874.147 1.457.293 2.04 0 .29-.145.728-.729.29-1.313-.436-.73-1.31-.73-2.038-.875.728-.292.873-.292 1.31-.147Zm23.447 14.596-2.766 2.043v-6.714l2.766 4.67Zm0-6.422s-1.892 1.167-3.057 1.897c-1.312.73-2.913 1.605-2.913 1.605v7.735l-1.165.875.145.147 1.02-.876 3.349 3.064 5.972-4.67-.147-.145-3.202 2.627-2.623-2.481v-.876l5.389-3.94-2.768-4.962ZM21.6 34.988a5.538 5.538 0 0 0 3.787-.582c1.893-.876 2.767-2.919 2.767-4.817l.145-2.772v-6.131l1.165-.876-.145-.145-1.165.876-2.622-2.92-3.35 2.92V10.47l-4.368 3.355c.145.147.727.293.873 1.023V28.86l-1.747 1.314.145.146.729-.584 2.475 2.188 3.787-3.064-.146-.146-.874.73-1.02-.876v-7.735l1.165-.875L24.803 22v6.713c0 1.75 0 3.94-1.019 5.108-.875.875-1.166 1.02-2.185 1.166Zm26.506-.579c-1.456-.146-2.185-1.167-2.185-1.898 0-.437.438-1.314 1.312-1.459.873-.145 1.892.292 2.621 1.314l3.495-3.94v-.146l-.873 1.02c-1.02-1.166-2.33-1.75-3.642-2.042V15.437l9.176 16.637s.146.145.437.145c.29 0 .29-.29.29-.29V15.144c.729 0 1.894-.438 2.477-1.022 1.747-1.751 1.02-3.794.873-3.94-.145.876-.727 1.752-1.892 1.752-1.457 0-2.33-1.023-2.33-1.023L54.366 15l-.145.146 1.02-1.167c1.165 1.167 2.184 1.314 3.058 1.314v9.777L51.453 12.81c-.582-1.022-1.601-1.897-3.057-1.897-1.748 0-2.913 1.459-3.06 2.773-.145 1.46 0 1.751 0 1.751s.292-1.604 1.312-1.604c.874 0 1.311.874 1.748 1.458v3.503c-.874 0-3.35.145-3.497 2.627 0 .875.584 1.896 1.021 2.188.336.26.741.412 1.164.439 0 0-.727-.439-.582-1.168.146-.73 1.747-.875 1.747-.584v5.107c-.727 0-3.059 0-4.077 2.045-.583 1.167-.583 2.626.145 3.502.728.729 1.748 1.751 3.787 1.46l.002-.002Zm19.373-10.366-2.768 2.043v-6.714l2.768 4.67Zm-.146-6.422s-1.893 1.167-3.058 1.897c-1.312.73-2.913 1.605-2.913 1.605v7.735l-1.02.875.145.147 1.021-.876 3.35 3.064 5.97-4.67-.145-.145-3.204 2.627-2.623-2.481v-.876l5.39-3.94-2.913-4.962Zm8.298 14.59-2.913-2.48-1.311.876-.145-.147 1.311-.875v-6.713c0-2.773-2.476-2.043-2.33-4.962 0-1.314 1.311-2.335 1.892-2.628.73-.29 1.457-.29 1.457-.29s-1.165.729-.874 1.75c.438 1.605 3.204 1.752 3.35 3.94v7.59l2.04 1.605.582-.438v-8.318l-1.165-1.022 2.912-2.627 2.623 2.335-1.021 1.167v7.298l2.476 2.043.437-.292v-8.902l-1.165-1.022 2.913-2.627 2.768 2.19 1.019-1.023.146.147-2.477 2.188v7.151l-6.263 3.794-3.057-2.188-3.205 2.48Zm126.999-8.168-2.767 2.043v-6.714l2.767 4.67Zm0-6.422s-1.892 1.167-3.059 1.897c-1.31.73-2.912 1.605-2.912 1.605v7.735l-1.165.875.146.147 1.019-.876 3.35 3.064 5.971-4.67-.146-.145-3.204 2.627-2.621-2.481v-.876l5.389-3.94-2.768-4.962Zm-27.818 3.356.146.146 1.165-1.02 1.602 1.896v6.422l-.729.729 2.477 2.918 2.767-2.626-1.165-1.168V20.54l.728-.437 1.747 2.043v6.421l-.727.73 2.475 2.772 2.622-2.626-1.019-1.021v-7.882l.727-.583 1.894 2.19v6.42l-.582.584 2.621 2.918 3.641-3.355-.146-.147-.874.876-1.31-1.605v-7.298l1.165-.875-.146-.291-1.165 1.021-2.476-2.773-3.496 2.773-2.475-2.628-3.35 2.628-2.476-2.628-3.641 3.21Z"/><path fill="#000" d="m167.533 20.683.145.146.874-.73 1.603 1.75v7.298l-1.165.876.145.145 1.165-.875 2.331 2.773 3.495-3.065-.146-.145-1.019.875-1.456-1.605V20.83l1.165-1.022-.146-.146-1.019 1.022-2.623-2.918-3.349 2.918Zm1.016-6.127 2.621-2.335 2.04 2.335-2.622 2.335-2.039-2.335Z"/><path fill="#000" d="M157.913 26.231v-8.173l-2.476 1.168s-.583 1.46-.583 3.503c.147 1.605 1.02 3.502 1.603 4.233l1.456-.73ZM165.05 9.45c.583 0 1.601.29 2.33 1.02.728.73.874 1.898.728 2.92-.292.875-.437 1.313-1.457 2.042-.873.584-2.039.584-2.039.584v3.94l1.894 1.605-1.894 1.606v5.108s1.894-1.167 3.059-3.502c0 0 0-.146.145-.438.147.73 0 2.043-.727 3.649a6.902 6.902 0 0 1-2.913 3.209c-2.331 1.314-3.933 1.314-5.826 1.023-2.184-.438-4.078-1.606-5.388-3.795-.874-1.46-1.311-3.21-1.311-5.107.146-3.65 2.767-6.714 5.825-7.882.437-.145.582-.29 1.02-.29-.291.145-.583.437-.874.582-1.02.584-1.894 1.898-2.185 2.919l5.972-2.627v8.465l-4.807 2.48c.583.73 2.185 1.898 3.641 2.043 2.477.292 3.933-.729 3.933-.729v-5.546l-1.894-1.605 1.894-1.605v-3.941c-1.02-.146-2.331-.438-3.059-.583-1.02-.292-4.66-1.314-5.243-1.314-.582-.145-1.311 0-1.747.292-.438.438-.729 1.022-.438 1.605.147.293.292.585.583.73 0 0-.145 0-.583-.29-.727-.44-1.165-1.17-1.31-2.19-.146-1.314.437-2.482 1.457-3.21.873-.585 2.038-1.023 3.204-.876 1.747.29 4.222 1.314 6.262 1.75.874.146 1.457.292 2.039 0 .292-.146.728-.73.292-1.313-.438-.73-1.312-.73-2.039-.876.873 0 1.018 0 1.456.147Zm45.157 9.778v3.796l1.31 1.168s2.768-2.19 3.786-4.378c0 0-1.31 1.75-2.912 1.166-1.31-.437-2.184-1.752-2.184-1.752Zm-3.059 10.216s1.165-2.043 3.35-1.605c2.039.438 2.767 2.48 2.767 2.48v-4.961l-1.457-1.168c-1.601 1.605-4.369 3.795-4.66 5.254Zm2.039 3.648c-.436.146-2.039-.291-2.477-2.043-.436-1.752.729-2.919 2.623-4.67l-2.185-1.897v-3.649s1.603-.73 2.768-1.604c1.165-.73 2.475-1.606 2.475-1.606s.874 1.168 1.894 1.02c1.601-.144 1.601-1.458 1.456-1.75.291.438 1.019 1.898-1.894 5.254l2.33 1.897v4.816s-2.621 1.46-5.243 3.21c0 0-1.456-1.75-2.621-.875-.728.584-.291 1.46.874 1.897Zm-93.068-5.397 3.059 2.773V22.15l-3.059-2.774v8.32Zm6.117-6.86 1.02-1.02.145.145-.874 1.022v7.735s-1.892 1.021-3.204 1.751c-1.31.73-2.767 1.605-2.767 1.605l-3.496-2.919-.873.876-.437-.29 1.019-.878v-8.318s1.602-.73 3.059-1.605a43.8 43.8 0 0 0 2.622-1.604l3.786 3.5Zm6.989-.735 2.184-2.335s.291.292.583.438c.146.146.874.438 1.456.146.292-.146.438-.291.729-.584.146 1.751-.729 3.065-1.894 3.503-.436.146-1.748.584-3.058-1.023v8.32l1.457 1.314 1.165-1.023.145.146-3.496 3.065-2.912-2.628-1.019 1.024-.146-.147 1.602-1.46v-7.15l-1.165-1.605-1.02.874h-.145l3.64-3.209 1.894 2.334Zm9.469 3.506 4.223-5.984s.583.584 1.456.875c1.312.292 2.477-.875 2.477-.875-.146 1.605-1.02 3.502-2.768 3.795-1.456.29-2.912-.877-2.912-.877l-.292.439 5.826 8.756 1.165-1.021.146.145-3.933 3.502-5.388-8.755Z"/><path fill="#000" d="M135.346 15.437c0-1.314-.582-2.043-1.165-2.043l4.516-3.21v18.095l1.165 1.314.874-.73.145.145-3.641 3.21-2.476-2.48-1.019.876-.146-.147 1.747-1.459v-13.57Zm-29.129 5.104s-.437.583-1.311.583c-.727 0-1.311-.583-1.311-.583v2.482s.584-.584 1.311-.584c.729 0 1.311.584 1.311.584v-2.482Zm0-5.254-1.747-1.605-.874.73v5.837s.583.73 1.311.73 1.31-.584 1.31-.584v-5.108Zm-2.622 16.345s1.021.291 1.894-.291c.873-.73.728-1.752.728-1.752v-6.275s-.437-.584-1.311-.584c-.727 0-1.311.73-1.311.73v8.172Zm-6.26-16.493c0-1.167-.438-1.896-1.312-1.896-1.165 0-1.456 1.604-1.456 1.604s-.145-1.313.874-2.334c.582-.584 1.747-1.46 3.35-1.168 1.747.439 2.33 1.751 2.33 3.065v16.783s.727.146 1.165.146c.582.146 1.019.291 1.019.291V11.348h.292v2.773l3.64-2.919 2.623 2.335 1.31-1.022.145.146-1.311 1.021V29.3c0 1.02-.29 2.043-1.164 2.627-2.185 1.313-4.66-.147-6.992-.584-1.747-.292-4.369-.584-5.096 1.02-.291.584-.146 1.315.582 1.898 1.602 1.021 8.448-1.75 10.923-.583 2.184 1.02 2.184 2.626 1.893 3.647-.582 2.044-3.203 2.482-3.203 2.482s1.31-.73.873-1.898c-.145-.584-.583-.73-1.893-.584-2.912.292-6.554 1.753-8.884.73-1.165-.583-2.039-2.043-2.039-3.502 0-2.19 2.622-3.065 2.622-3.065V23.46c0-.29-1.457-.29-1.748.292-.438.876.583 1.314.583 1.314s-.874.146-1.457-.73c-.291-.437-1.02-1.751-.146-3.064.729-1.022 1.601-1.167 2.768-1.314v-4.816h-.292v-.003Z"/></svg>