<svg xmlns="http://www.w3.org/2000/svg" width="217" height="50" fill="none"><path fill="#000" d="M81.467 21.664v13.499h-4.922v-13.5h-4.978v-4.298H86.43v4.298h-4.963Zm16.465 8.135h-7.818c.154 1.479 1.012 2.128 2.263 2.128 1.169 0 2.139-.255 3.447-.946l1.743 2.93c-1.646.974-3.347 1.524-5.428 1.524-4.008 0-6.215-2.847-6.215-6.947 0-4.608 2.588-6.96 6.089-6.96 3.655 0 5.933 2.41 5.933 7.368 0 .396 0 .677-.014.903Zm-6.046-4.876c-1.04 0-1.617.719-1.772 2.03h3.811c-.239-1.34-.69-2.03-2.039-2.03Zm14.538 10.525c-3.908 0-6.243-2.495-6.243-6.989 0-4.1 2.081-6.918 6.342-6.918 2.517 0 3.951 1.17 5.117 3.044l-3.149 2.395c-.633-1.17-1.068-1.732-2.053-1.732-1.166 0-1.757 1.168-1.757 3.281 0 2.114.632 3.199 1.883 3.199.859 0 1.478-.48 2.307-1.733l2.897 2.268c-1.547 2.297-2.983 3.185-5.344 3.185Zm15.568-.285v-7.58c0-1.732-.576-2.183-1.519-2.183-.97 0-1.547.45-1.547 2.14v7.624h-4.569V18.465l4.569-1.83v6.072c.844-.634 1.772-1.17 3.347-1.17 2.924 0 4.317 1.96 4.317 5.468v8.158h-4.598ZM137.516 35.451c-5.272 0-8.099-3.917-8.099-9.173 0-5.721 3.346-9.172 8.113-9.172 4.359 0 6.089 1.888 7.312 5.24l-4.457 1.734c-.634-1.649-1.238-2.69-2.869-2.69-2.052 0-2.939 2.056-2.939 4.874 0 2.72.858 4.875 2.995 4.875 1.547 0 2.208-.845 3.165-2.523l4.161 2.213c-1.181 2.353-3.163 4.622-7.382 4.622Zm18.613-8.599c-.577-.634-1.239-1.113-2.124-1.113-1.111 0-1.8.535-1.8 2.156v7.27h-4.57V21.822h4.57v.972c.788-.76 1.674-1.24 2.841-1.24.97 0 1.616.226 2.151.565l-1.068 4.733Zm10.858 8.315v-.887c-.815.634-1.771 1.17-3.318 1.17-2.925 0-4.317-1.958-4.317-5.468v-8.156h4.598v7.58c0 1.732.577 2.183 1.519 2.183s1.518-.45 1.518-2.141v-7.622h4.598v13.341h-4.598Zm15.525 0v-7.582c0-1.733-.577-2.183-1.519-2.183-.97 0-1.546.45-1.546 2.14v7.624h-4.571V21.823h4.571v.887c.844-.633 1.771-1.17 3.346-1.17 2.925 0 4.317 1.96 4.317 5.468v8.158h-4.598Zm13.497.28c-3.909 0-6.243-2.494-6.243-6.988 0-4.1 2.081-6.918 6.342-6.918 2.517 0 3.951 1.17 5.117 3.044l-3.149 2.395c-.633-1.17-1.069-1.732-2.053-1.732-1.167 0-1.758 1.168-1.758 3.281 0 2.114.633 3.199 1.884 3.199.858 0 1.476-.48 2.306-1.733l2.897 2.268c-1.547 2.297-2.98 3.185-5.343 3.185Zm15.567-.284v-7.58c0-1.732-.575-2.183-1.518-2.183-.97 0-1.547.45-1.547 2.14v7.624h-4.569V18.465l4.569-1.83v6.072c.844-.634 1.772-1.17 3.347-1.17 2.924 0 4.317 1.96 4.317 5.468v8.158h-4.599ZM.337 9.75v10.172h10.15v20.334h10.138V19.922h10.153V9.75H.337Z"/><path fill="#000" d="M40.914 30.081V19.922h-10.14v20.332h30.43V30.08h-20.29v.001ZM61.21 9.75H40.917v10.172h20.29V9.75h.002Z"/></svg>