<svg xmlns="http://www.w3.org/2000/svg" width="16" height="16" fill="none"><g clip-path="url(#a)"><path fill="#000" d="M16 4.638a6.255 6.255 0 0 1-1.799.493A3.137 3.137 0 0 0 15.578 3.4a6.274 6.274 0 0 1-1.989.76 3.127 3.127 0 0 0-2.287-.99 3.135 3.135 0 0 0-3.051 3.847 8.893 8.893 0 0 1-6.457-3.274 3.137 3.137 0 0 0 .97 4.183 3.12 3.12 0 0 1-1.418-.392c-.035 1.451 1.005 2.809 2.512 3.112a3.139 3.139 0 0 1-1.415.053 3.135 3.135 0 0 0 2.926 2.175 6.299 6.299 0 0 1-4.638 1.298 8.868 8.868 0 0 0 4.803 1.407c5.815 0 9.101-4.912 8.903-9.318A6.379 6.379 0 0 0 16 4.64v-.002Z"/></g><defs><clipPath id="a"><path fill="#fff" d="M0 0h16v16H0z"/></clipPath></defs></svg>