<svg xmlns="http://www.w3.org/2000/svg" width="16" height="16" fill="none"><path fill="#000" d="M3.523.498h.916l.628 2.355L5.65.5h.925l-1.059 3.5v2.39h-.91V4.002L3.523.498Zm4.195 1.51c-.712 0-1.184.471-1.184 1.167v2.13c0 .767.4 1.166 1.184 1.166.65 0 1.162-.435 1.162-1.165v-2.13c0-.681-.507-1.168-1.162-1.168Zm.338 3.261c0 .237-.12.412-.339.412-.223 0-.352-.183-.352-.412V3.248c0-.238.11-.414.336-.414.249 0 .355.17.355.414V5.27v-.002Zm3.01-3.225v3.299c-.1.124-.32.326-.477.326-.172 0-.215-.118-.215-.292V2.044h-.808v3.633c0 .43.132.776.564.776.245 0 .585-.127.934-.542v.48h.808V2.043h-.808l.001.001Zm1.4 8.817c-.285 0-.344.2-.344.485v.42h.68v-.42c0-.28-.058-.485-.336-.485Zm-2.992.025a.588.588 0 0 0-.16.126v2.58a.677.677 0 0 0 .183.146c.126.063.309.068.394-.043.045-.059.067-.154.067-.286v-2.137a.522.522 0 0 0-.082-.318c-.093-.122-.267-.136-.402-.068Zm3.07-3.305c-1.656-.112-7.04-.112-8.693 0-1.79.122-2.002 1.204-2.015 4.05.013 2.843.223 3.93 2.015 4.051 1.654.113 7.037.113 8.694 0 1.79-.122 2.001-1.204 2.015-4.05-.014-2.842-.223-3.929-2.015-4.051Zm-7.84 6.798h-.866V9.582H2.94v-.814H5.6v.815h-.896v4.796Zm3.083 0h-.77v-.457c-.14.17-.289.297-.442.386-.415.237-.984.232-.984-.608v-3.46h.77v3.174c0 .166.039.278.204.278.15 0 .358-.193.452-.31V10.24h.77v4.139Zm2.964-.857c0 .512-.192.91-.704.91-.282 0-.517-.103-.732-.37v.317H8.54V8.768h.777v1.807c.174-.212.409-.387.684-.387.564 0 .751.477.751 1.038v2.296Zm2.844-1.115h-1.472v.781c0 .311.026.58.335.58.325 0 .344-.22.344-.58v-.287h.793v.311c0 .797-.343 1.28-1.154 1.28-.734 0-1.11-.535-1.11-1.28v-1.86c0-.718.474-1.217 1.168-1.217.74 0 1.095.47 1.095 1.218v1.054Z"/></svg>