<svg xmlns="http://www.w3.org/2000/svg" width="75" height="50" fill="none"><g clip-path="url(#a)"><path fill="#000" fill-rule="evenodd" d="M16.167 49.472 49.24 33.229l-3.396-6.98v-8.723l5.99 10.43h3.014V11.963H52.06v10.68l-6.084-10.68h-2.92v8.553L33.073 0 0 16.243l16.167 33.229Zm13.107-26.007v-7.626h2.023c4.432 0 4.477 3.282 4.477 4.178 0 .826-.046 4.177-4.477 4.177h-1.425v3.855h2.292c5.734 0 8.224-3.718 8.224-8.032 0-3.604-1.645-8.032-8.223-8.032h-7.367v12.209h-9.116l7.582-12.21H10.686L8.134 15.84h7.868l-8.12 12.21h17.896l3.497-4.585Zm37.8 1.315-2.84-.511c-.153.581-.385 1.002-.69 1.266-.304.26-.678.392-1.124.392-.654 0-1.205-.254-1.644-.76-.44-.503-.668-1.21-.688-2.12h7.139c.037-2.348-.406-4.09-1.33-5.23-.927-1.14-2.19-1.71-3.791-1.71-1.427 0-2.607.544-3.537 1.631-.935 1.087-1.402 2.592-1.402 4.513 0 1.605.357 2.938 1.065 3.992.9 1.318 2.285 1.973 4.157 1.973 1.183 0 2.17-.29 2.955-.879.79-.584 1.364-1.436 1.73-2.557Zm-3.315-5.634c.405.461.616 1.135.637 2.025H60.14c-.007-.838.194-1.5.6-1.984.404-.488.916-.734 1.539-.734.582 0 1.076.23 1.481.693Zm10.724-2.775v2.444H72.54v4.669c0 .946.017 1.496.055 1.653a.684.684 0 0 0 .253.387c.132.1.294.153.48.153.267 0 .648-.1 1.15-.295l.242 2.377c-.665.304-1.412.457-2.253.457-.512 0-.976-.093-1.388-.276-.411-.186-.713-.428-.906-.722-.194-.294-.325-.693-.402-1.195-.059-.354-.09-1.076-.09-2.16v-5.049h-1.308v-2.442h1.309v-2.305l2.858-1.787v4.091h1.944Z" clip-rule="evenodd"/></g><defs><clipPath id="a"><path fill="#fff" d="M0 0h75v50H0z"/></clipPath></defs></svg>